<svg width="124" height="124" viewBox="0 0 124 124" fill="none" xmlns="http://www.w3.org/2000/svg">
<circle cx="62" cy="62" r="61" stroke="#3DD9C0" stroke-width="2"/>
<circle cx="104" cy="18" r="10" fill="#3DD9C0"/>
<path d="M88.7914 52.1978C84.6741 52.1978 82.374 56.2867 83.3111 59.3251L73.2306 69.434C72.3787 69.1784 71.1293 69.1784 70.2774 69.434L63.0365 62.193C64.002 59.1547 61.7019 55.0373 57.5562 55.0373C53.4388 55.0373 51.1103 59.1263 52.0758 62.193L39.1273 75.1131C36.089 74.176 32 76.4761 32 80.5935C32 83.717 34.5556 86.2726 37.6791 86.2726C41.7965 86.2726 44.0966 82.1836 43.1595 79.1453L56.0796 66.1968C56.9314 66.4524 58.1809 66.4524 59.0327 66.1968L66.2736 73.4378C65.3082 76.4761 67.6082 80.5935 71.754 80.5935C75.8714 80.5935 78.1998 76.5045 77.2344 73.4378L87.3433 63.3573C90.3816 64.2943 94.4706 61.9943 94.4706 57.8769C94.4706 54.7534 91.915 52.1978 88.7914 52.1978Z" fill="white"/>
<path d="M71.754 55.0374L74.4232 49.1595L80.2727 46.5187L74.4232 43.8779L71.754 38L69.1416 43.8779L63.2353 46.5187L69.1416 49.1595L71.754 55.0374Z" fill="white"/>
<path d="M39.0989 60.7165L40.5187 55.0374L46.1979 53.6176L40.5187 52.1978L39.0989 46.5187L37.6791 52.1978L32 53.6176L37.6791 55.0374L39.0989 60.7165Z" fill="white"/>
</svg>
