<svg width="55" height="55" viewBox="0 0 55 55" fill="none" xmlns="http://www.w3.org/2000/svg">
<rect x="0.5" y="0.5" width="54" height="54" rx="16.5" stroke="#5C3FD6"/>
<path d="M35.3459 39.2858H19.6542C17.4858 39.2858 15.7143 37.5143 15.7143 35.3459V19.6542C15.7143 17.4858 17.4858 15.7144 19.6542 15.7144H35.3459C37.5142 15.7144 39.2857 17.4858 39.2857 19.6542V35.3459C39.2857 37.524 37.5239 39.2858 35.3459 39.2858Z" stroke="#7B61FF" stroke-width="3"/>
<path d="M23.2261 31.7834C24.3684 32.9257 25.8882 33.5549 27.5048 33.5549C29.1214 33.5549 30.6315 32.9257 31.7835 31.7834C32.9258 30.6412 33.555 29.1214 33.555 27.5048C33.555 25.8881 32.9258 24.3683 31.7835 23.2261C30.6412 22.0838 29.1214 21.4546 27.5048 21.4546C25.8882 21.4546 24.3684 22.0838 23.2261 23.2261C22.0839 24.3683 21.4547 25.8881 21.4547 27.5048C21.4547 29.1214 22.0839 30.6412 23.2261 31.7834Z" stroke="#7B61FF" stroke-width="3"/>
<path d="M34.7343 21.2559C35.3759 21.2559 35.896 20.7358 35.896 20.0943C35.896 19.4527 35.3759 18.9326 34.7343 18.9326C34.0927 18.9326 33.5726 19.4527 33.5726 20.0943C33.5726 20.7358 34.0927 21.2559 34.7343 21.2559Z" stroke="#7B61FF" stroke-width="2"/>
</svg>
