<svg width="139" height="42" viewBox="0 0 139 42" fill="none" xmlns="http://www.w3.org/2000/svg">
<path d="M132.493 39.191V13.655H139V39.191H132.493Z" fill="#5C3FD6"/>
<path d="M127.797 13.6013L117.687 26.5574L127.42 39.191H117.041L110.911 31.2346L105.533 39.191H97.1437L106.017 26.3424L97.1437 13.6013H105.856L111.126 21.3427L117.095 13.6013H127.797Z" fill="#5C3FD6"/>
<path d="M85.6181 13.6013H94.0611V39.191H86.371V36.9331C85.4747 37.865 84.5426 38.4742 83.5746 38.761C82.6066 39.0477 81.7282 39.191 80.9395 39.191H78.7346C77.5515 39.191 76.4043 39.0298 75.2929 38.7072C74.2174 38.4205 73.2673 37.9008 72.4427 37.1482C71.654 36.4314 71.0086 35.4637 70.5067 34.2451C70.0406 32.9907 69.8076 31.4138 69.8076 29.5142V13.6013H76.3684V27.9014C76.3684 29.7293 76.6015 31.0554 77.0676 31.8797C77.5695 32.704 78.4837 33.1162 79.8102 33.1162H81.9613C83.0727 33.1162 83.951 32.7219 84.5964 31.9334C85.2775 31.1091 85.6181 29.9085 85.6181 28.3315V13.6013Z" fill="#5C3FD6"/>
<path d="M64.7962 39.191H57.7514V0H64.7962V39.191Z" fill="#5C3FD6"/>
<path d="M53.719 20.375V24.9984H48.1261V39.191H41.8342V24.9984H37.532V20.375H41.8342V13.44C41.8342 11.3254 42.4258 9.87392 43.6089 9.08543C44.792 8.26112 46.2619 7.84896 48.0186 7.84896H53.0736V12.8486H50.0083C48.7535 12.8486 48.1261 13.6013 48.1261 15.1066V20.375H53.719Z" fill="#5C3FD6"/>
<path d="M31.9163 11.2H1.88316C1.47851 11.2 1.10461 11.4135 0.902284 11.76L0.151743 13.0455C-0.0505807 13.392 -0.0505809 13.819 0.151742 14.1655L3.48818 19.88C3.92413 20.6267 5.01399 20.6267 5.44994 19.88L5.51879 19.7621C5.72111 19.4155 6.09502 19.2021 6.49966 19.2021H28.5521C28.9567 19.2021 29.3306 18.9886 29.5329 18.6421L32.8972 12.88C33.3331 12.1333 32.7882 11.2 31.9163 11.2Z" fill="url(#paint0_linear_246_683)"/>
<path d="M24.979 23.24H8.9988C8.59415 23.24 8.22024 23.4535 8.01792 23.8L1.71417 34.5968C1.51185 34.9433 1.51185 35.3703 1.71417 35.7168L5.0557 41.44C5.49164 42.1867 6.5815 42.1867 7.01745 41.44L12.7392 31.64C12.9415 31.2935 13.3155 31.08 13.7201 31.08H21.7094C22.1141 31.08 22.488 30.8665 22.6903 30.52L25.9599 24.92C26.3958 24.1733 25.8509 23.24 24.979 23.24Z" fill="url(#paint1_linear_246_683)"/>
<defs>
<linearGradient id="paint0_linear_246_683" x1="16.5253" y1="11.2" x2="16.5253" y2="42" gradientUnits="userSpaceOnUse">
<stop stop-color="#67E5D2"/>
<stop offset="1" stop-color="#2BA693"/>
</linearGradient>
<linearGradient id="paint1_linear_246_683" x1="16.5253" y1="11.2" x2="16.5253" y2="42" gradientUnits="userSpaceOnUse">
<stop stop-color="#67E5D2"/>
<stop offset="1" stop-color="#2BA693"/>
</linearGradient>
</defs>
</svg>
