<svg width="55" height="55" viewBox="0 0 55 55" fill="none" xmlns="http://www.w3.org/2000/svg">
<path d="M20.35 18.3334C20.4286 19.4989 20.625 20.6382 20.9393 21.7251L19.3679 23.2965C18.831 21.7251 18.4905 20.062 18.3726 18.3334H20.35ZM33.2619 34.0739C34.375 34.3882 35.5143 34.5846 36.6667 34.6632V36.6144C34.9381 36.4965 33.275 36.156 31.6905 35.6322L33.2619 34.0739ZM21.6072 15.7144H17.0238C16.3036 15.7144 15.7143 16.3036 15.7143 17.0239C15.7143 29.3203 25.6798 39.2858 37.9762 39.2858C38.6964 39.2858 39.2857 38.6965 39.2857 37.9763V33.406C39.2857 32.6858 38.6964 32.0965 37.9762 32.0965C36.3524 32.0965 34.7679 31.8346 33.3012 31.3501C33.1702 31.2977 33.0262 31.2846 32.8952 31.2846C32.5548 31.2846 32.2274 31.4155 31.9655 31.6644L29.0845 34.5453C25.3786 32.6465 22.3405 29.6215 20.4548 25.9155L23.3357 23.0346C23.7024 22.6679 23.8072 22.1572 23.6631 21.6989C23.1786 20.2322 22.9167 18.6608 22.9167 17.0239C22.9167 16.3036 22.3274 15.7144 21.6072 15.7144Z" fill="#7B61FF"/>
<rect x="0.5" y="0.5" width="54" height="54" rx="16.5" stroke="#5C3FD6"/>
</svg>
