<svg width="69" height="69" viewBox="0 0 69 69" fill="none" xmlns="http://www.w3.org/2000/svg">
<rect width="69" height="69" rx="16" fill="url(#paint0_linear_247_733)"/>
<g clip-path="url(#clip0_247_733)">
<path d="M31.2428 49.2528L35.9791 37.5979C39.6964 37.775 43.2866 35.6236 44.7671 31.9805C46.6446 27.3605 44.4157 22.08 39.7956 20.2025C35.1756 18.325 29.8951 20.5538 28.0176 25.1739C26.5371 28.8169 27.6089 32.8628 30.396 35.329L30.1974 35.8175L26.2714 37.4747L27.9285 41.4007L24.0025 43.0579L27.3726 50.9326L31.2428 49.2528ZM32.205 26.8756C33.1409 24.5725 35.7909 23.4539 38.094 24.3898C40.397 25.3257 41.5156 27.9758 40.5797 30.2789C39.6438 32.5819 36.9937 33.7005 34.6907 32.7646C32.3876 31.8287 31.269 29.1786 32.205 26.8756Z" fill="white"/>
</g>
<defs>
<linearGradient id="paint0_linear_247_733" x1="34.5" y1="0" x2="34.5" y2="69" gradientUnits="userSpaceOnUse">
<stop stop-color="#7B61FF"/>
<stop offset="1" stop-color="#5C3FD6"/>
</linearGradient>
<clipPath id="clip0_247_733">
<rect width="36.1595" height="36.1595" fill="white" transform="translate(57.1123 25.6133) rotate(112.116)"/>
</clipPath>
</defs>
</svg>
