<svg width="126" height="124" viewBox="0 0 126 124" fill="none" xmlns="http://www.w3.org/2000/svg">
<circle cx="116" cy="89" r="10" fill="#3DD9C0"/>
<circle cx="62" cy="62" r="61" stroke="#3DD9C0" stroke-width="2"/>
<path d="M80.6082 77.4962L67.1712 62.4414C70.0525 57.2135 69.491 50.5235 65.2909 45.8178C59.9644 39.85 50.7856 39.3288 44.8178 44.6553C38.85 49.9818 38.3288 59.1606 43.6554 65.1284C47.8554 69.8342 54.4388 71.1494 59.9593 68.8783L60.5225 69.5094L60.135 76.3337L66.9594 76.7212L66.5719 83.5456L80.2928 84.2562L80.6082 77.4962ZM49.0642 60.3008C46.409 57.3259 46.6706 52.7194 49.6455 50.0642C52.6204 47.409 57.2268 47.6706 59.882 50.6455C62.5373 53.6204 62.2757 58.2268 59.3008 60.882C56.3259 63.5372 51.7195 63.2757 49.0642 60.3008Z" fill="white"/>
</svg>
