<svg width="127" height="124" viewBox="0 0 127 124" fill="none" xmlns="http://www.w3.org/2000/svg">
<path d="M38.1079 72.223L41.4317 68.8993L49.3453 70.0072L61.6906 57.6619L37 44.2086L41.4317 39.777L71.6619 47.5324L84.0072 35.3453C84.9041 34.4484 86.012 34 87.3309 34C88.6499 34 89.7578 34.4484 90.6547 35.3453C91.5516 36.2422 92 37.3501 92 38.6691C92 39.988 91.5516 41.0959 90.6547 41.9928L78.4676 54.3381L86.223 84.5683L81.7914 89L68.3381 64.3094L55.9928 76.6547L57.1007 84.5683L53.777 87.8921L48.2374 77.7626L38.1079 72.223Z" fill="white"/>
<circle cx="65" cy="62" r="61" stroke="#3DD9C0" stroke-width="2"/>
<circle cx="10" cy="89" r="10" fill="#3DD9C0"/>
</svg>
